# xmcd
#
# Track frame offsets:
#	150
#	19800
#	39950
#	57200
#	81025
#	103237
#	122162
#	144425
#	164650
#	184950
#
# Disc length: 2726 seconds
# Revision: 5
# Processed by: cddbd v1.5.2PL0 Copyright (c) Steve Scherf et al.
# Submitted via: dBpowerAMP V12.0
#
DISCID=860aa40a
DTITLE=黎明 - 火舞艷陽 [dBP-T-FLAC]
DYEAR=1994
DGENRE=Chinese Pop
TTITLE0=火舞艷陽
TTITLE1=送妳一瓣的雪花
TTITLE2=夜搖遙
TTITLE3=如果...
TTITLE4=伴你同行
TTITLE5=一天情深一點情感
TTITLE6=別再流淚
TTITLE7=草戒指
TTITLE8=天使的誘惑
TTITLE9=我沒有愛錯
EXTD=
EXTT0=
EXTT1=
EXTT2=
EXTT3=
EXTT4=
EXTT5=
EXTT6=
EXTT7=
EXTT8=
EXTT9=
PLAYORDER=
